<svg width="800" height="800" xmlns="http://www.w3.org/2000/svg" style=""><rect id="backgroundrect" width="100%" height="100%" x="0" y="0" fill="none" stroke="none"/>
 <!-- Created with Method Draw - http://github.com/duopixel/Method-Draw/ -->
 <defs>
  <linearGradient spreadMethod="pad" y2="1" x2="0.6445310115814209" y1="0" x1="0.640625" id="svg_5">
   <stop offset="0" stop-color="#FFE7A2"/>
   <stop offset="0.703125" stop-opacity="0.996094" stop-color="#ffffff"/>
  </linearGradient>
 </defs>
 <g style="">
  <title>background</title>
  <rect fill="#00000000" id="canvas_background" height="402" width="582" y="-1" x="-1"/>
  <g display="none" overflow="visible" y="0" x="0" height="100%" width="100%" id="canvasGrid">
   <rect fill="url(#gridpattern)" stroke-width="0" y="0" x="0" height="100%" width="100%" id="svg_1"/>
  </g>
 </g>
 <g style="" class="currentLayer">
  <title>Layer 1</title>
  <rect id="svg_2" height="144" width="20.000001907348633" y="128" x="280" stroke-width="1.5" stroke="#212113" fill="url(#svg_5)" class="" transform="translate(0, -11.7647) translate(0, -11.7647) translate(0, -11.7647) translate(0, -11.7647) translate(0, -11.7647) translate(0, -11.7647) translate(0, -11.7647) translate(0, -11.7647) translate(0, -11.7647) translate(0, -11.7647) translate(0, -11.7647) translate(0, -11.7647) translate(0, -11.7647) translate(0, -11.7647) translate(0, -11.7647) translate(0, -1.17647) translate(0, -1.17647) translate(0, -1.17647) translate(0, -1.17647) translate(0, -1.17647) translate(0, -1.17647) translate(0, -1.17647) translate(0, -1.17647) translate(0, -1.17647) translate(0, -1.17647) translate(0, -1.17647) translate(0, -1.17647) translate(0, -1.17647) translate(0, -1.17647) translate(0, -1.17647) translate(0, -1.17647) translate(0, -1.17647) translate(0, -1.17647) translate(0, 200) translate(108.235, -123.529) translate(280, 128) scale(2.88235) translate(-280, -128)"/>
  <text xml:space="preserve" text-anchor="start" font-family="'Courier New', Courier, monospace" font-size="24" id="svg_3" y="328.13160037994385" x="186.54968459631345" fill-opacity="null" stroke-opacity="null" stroke-width="0" stroke="#000" fill="#000000" class="" transform="matrix(6.41174, 0, 0, 6.41174, -1217.69, -1570.4)">Frenchfry</text>
 </g>
</svg>